#N canvas 893 0 1271 988 12;
#X obj 49 215 tgl 19 0 empty empty empty 0 -10 0 12 #fcfcfc #000000 #000000 0 1;
#X obj 46 584 mtof;
#X obj 46 616 osc~;
#N canvas 0 50 450 250 (subpatch) 0;
#X array song 50 float 3;
#A 0 14 14 0 17 17 17 17 0 14 14 14 14 14 14 0 14 14 0 17 17 17 17 0 14 14 0 15 18 0 17 17 0 14 14 0 12 12 12 12 12 12 0 12 0 12 0 11 0 0 0;
#X coords 0 20 50 0 200 140 1 0 0;
#X restore 276 227 graph;
#X floatatom 105 406 5 0 0 0 - - - 0;
#X floatatom 48 482 5 0 0 0 - - - 0;
#X obj 48 515 + 60;
#X floatatom 84 547 5 0 0 0 - - - 0;
#X obj 98 313 + 1;
#X obj 47 446 tabread song;
#X msg 107 240 tempo 120 permin;
#X obj 48 364 mod 50;
#X obj 49 275 metro 0.5 1 sec;
#N canvas 0 50 450 250 (subpatch) 0;
#X array chords 50 float 3;
#A 0 0 0 0 14 14 14 14 14 14 0 19 19 19 19 19 19 19 0 14 14 14 14 14 14 14 0 22 22 22 22 22 22 22 22 0 18 18 18 18 18 18 0 18 18 18 18 18 0 0 0;
#X coords 0 25 50 0 200 140 1 0 0;
#X restore 513 227 graph;
#X obj 159 448 tabread chords;
#X floatatom 248 517 5 0 0 0 - - - 0;
#X floatatom 166 482 5 0 0 0 - - - 0;
#X obj 249 635 osc~;
#X floatatom 330 505 5 0 0 0 - - - 0;
#X obj 330 621 osc~;
#X obj 165 611 osc~;
#X obj 166 578 mtof;
#X obj 248 605 mtof;
#X obj 330 591 mtof;
#X obj 172 517 + 60;
#X obj 265 543 + 60;
#X obj 352 531 + 60;
#X floatatom 178 549 5 0 0 0 - - - 0;
#X floatatom 245 572 5 0 0 0 - - - 0;
#X floatatom 331 562 5 0 0 0 - - - 0;
#X obj 49 313 f 0;
#X obj 247 669 *~ 0.25;
#X obj 328 655 *~ 0.3;
#X obj 103 746 dac~;
#X obj 47 693 *~ 0.4;
#X obj 165 693 *~ 0.2;
#X text 299 170 two arrays for each part of the song \, the melody and the chords. each array value is worth a quarter note;
#X text 104 177 changing the metronome to 120 bpm \, and able to play quarter notes, f 21;
#X text 133 308 increments through each array to play the song \, both are 0-49, f 16;
#X text 300 445 the two arrays play simultaneously;
#X text 433 480 melody uses single notes + 60 to convert to midi \, then mtof converts for the oscillator to read and play the note, f 22;
#X text 432 585 the chords first add to make the triad notes \, then add 60 for the same midi to mtof conversion for their separate oscillators, f 22;
#X obj 247 489 + 2;
#X obj 329 475 + 4;
#X text 177 727 scale output down to help your speakers;
#X text 655 395 help from Sound Simulator: Additive Synth video;
#X text 663 417 Charles Matthews: sequencing with tables video;
#X text 671 460 flossmanuals step sequencer for counter basic;
#X text 664 438 Tobias Hartmann: metro object and timing video;
#X connect 0 0 12 0;
#X connect 1 0 2 0;
#X connect 2 0 34 0;
#X connect 4 0 9 0;
#X connect 4 0 14 0;
#X connect 5 0 6 0;
#X connect 6 0 7 0;
#X connect 7 0 1 0;
#X connect 8 0 30 1;
#X connect 9 0 5 0;
#X connect 10 0 12 0;
#X connect 11 0 4 0;
#X connect 12 0 30 0;
#X connect 14 0 16 0;
#X connect 15 0 25 0;
#X connect 16 0 24 0;
#X connect 16 0 42 0;
#X connect 16 0 43 0;
#X connect 17 0 31 0;
#X connect 18 0 26 0;
#X connect 19 0 32 0;
#X connect 20 0 35 0;
#X connect 21 0 20 0;
#X connect 22 0 17 0;
#X connect 23 0 19 0;
#X connect 24 0 27 0;
#X connect 25 0 28 0;
#X connect 26 0 29 0;
#X connect 27 0 21 0;
#X connect 28 0 22 0;
#X connect 29 0 23 0;
#X connect 30 0 8 0;
#X connect 30 0 11 0;
#X connect 31 0 35 0;
#X connect 32 0 35 0;
#X connect 34 0 33 0;
#X connect 34 0 33 1;
#X connect 35 0 33 1;
#X connect 35 0 33 0;
#X connect 42 0 15 0;
#X connect 43 0 18 0;
#X coords 0 988 1 987 85 60 0;
